<?xml version="1.0" standalone="no"?>
<!DOCTYPE svg PUBLIC "-//W3C//DTD SVG 20010904//EN"
 "http://www.w3.org/TR/2001/REC-SVG-20010904/DTD/svg10.dtd">
<svg version="1.0" xmlns="http://www.w3.org/2000/svg"
 width="300.000000pt" height="241.000000pt" viewBox="0 0 300.000000 241.000000"
 preserveAspectRatio="xMidYMid meet">
<metadata>
Created by potrace 1.10, written by Peter Selinger 2001-2011
</metadata>
<g transform="translate(0.000000,241.000000) scale(0.100000,-0.100000)"
fill="#000000" stroke="none">
<path d="M1748 2131 c-70 -72 -122 -158 -109 -180 9 -14 33 17 46 59 4 14 15
33 24 42 20 21 31 35 60 76 13 18 34 37 47 42 13 5 24 14 24 20 0 24 -30 5
-92 -59z"/>
<path d="M1890 2181 c0 -6 -7 -11 -15 -11 -8 0 -15 -4 -15 -10 0 -9 12 -12 37
-9 8 1 33 -57 39 -91 3 -13 8 -27 11 -30 8 -7 -8 102 -18 121 -12 23 -39 44
-39 30z"/>
<path d="M1427 1883 c-8 -8 -23 -15 -34 -16 -14 -1 -19 -6 -15 -17 5 -12 3
-13 -9 -3 -13 10 -21 6 -50 -23 -28 -29 -31 -36 -19 -44 10 -7 16 -5 18 4 2
10 84 59 102 61 3 0 12 5 20 10 19 12 46 17 90 16 33 0 34 1 15 15 -24 18 -99
16 -118 -3z"/>
<path d="M1881 1775 c-13 -14 -29 -25 -37 -25 -16 0 -19 -16 -4 -25 11 -7 70
22 70 34 0 5 3 16 6 25 9 24 -8 19 -35 -9z"/>
<path d="M1265 1760 c-3 -5 -3 -15 0 -20 4 -6 1 -18 -6 -26 -21 -26 -3 -25 25
1 15 14 22 25 15 25 -6 0 -9 7 -5 15 6 17 -19 21 -29 5z"/>
<path d="M1244 1662 c-5 -17 -12 -22 -27 -18 -14 3 -17 2 -9 -6 8 -8 7 -15 -4
-25 -8 -8 -14 -23 -14 -34 0 -16 3 -17 18 -8 21 13 55 86 48 103 -3 6 -8 1
-12 -12z"/>
<path d="M1870 1663 c0 -5 5 -15 10 -23 7 -11 12 -12 21 -3 6 6 8 16 5 22 -8
12 -36 15 -36 4z"/>
<path d="M1775 1600 c5 -9 2 -10 -14 -5 -16 5 -20 3 -15 -9 8 -20 44 -21 44
-2 0 8 -5 18 -12 22 -7 5 -8 3 -3 -6z"/>
<path d="M1035 1585 c-16 -7 -59 -21 -94 -31 -115 -32 -188 -101 -206 -194
l-6 -35 21 25 c11 14 25 35 30 48 6 13 14 21 19 18 5 -4 19 10 31 29 25 40 68
77 81 69 16 -9 10 -32 -10 -39 -19 -6 -37 -45 -20 -45 5 0 9 6 9 13 0 8 4 7
10 -3 8 -13 10 -13 10 2 0 20 86 108 106 108 7 0 16 -5 19 -10 4 -6 13 -7 24
-1 25 14 91 4 121 -18 27 -19 50 -74 43 -102 -3 -10 -19 -24 -36 -33 -26 -13
-28 -16 -11 -16 37 0 67 33 66 70 -1 39 -26 76 -72 108 -18 12 -29 22 -24 22
5 0 0 7 -10 15 -24 18 -61 18 -101 0z"/>
<path d="M1788 1546 c-45 -10 -117 -60 -105 -72 3 -3 22 6 41 21 44 33 108 37
151 9 21 -14 27 -15 20 -4 -8 13 -7 13 8 1 25 -20 33 -5 11 21 -18 20 -18 21
-1 15 10 -4 23 -7 28 -7 6 0 9 -8 7 -18 -4 -24 19 -52 38 -45 9 3 14 -1 14
-12 0 -10 -4 -13 -12 -9 -10 6 -10 5 -1 -7 7 -8 10 -28 7 -43 -7 -43 27 -30
38 14 15 60 17 63 32 51 7 -6 17 -7 21 -3 5 4 5 2 2 -4 -3 -6 7 -21 24 -33 18
-13 28 -29 25 -37 -3 -8 -1 -14 4 -14 6 0 9 -3 8 -7 0 -5 5 -22 13 -40 17 -36
11 -154 -8 -160 -5 -2 -8 -14 -6 -28 7 -34 -48 -111 -90 -124 -19 -7 -49 -23
-68 -36 -18 -14 -40 -23 -48 -20 -9 3 -12 3 -8 -1 4 -5 -3 -14 -15 -21 -21
-11 -22 -12 -3 -13 68 -1 188 66 234 131 40 54 55 123 46 214 -8 90 -49 182
-96 218 -46 35 -154 73 -209 75 -36 0 -40 -1 -20 -8 22 -7 22 -8 5 -9 -12 -1
-25 3 -30 8 -6 4 -31 3 -57 -3z"/>
<path d="M1059 1499 c-21 -21 -17 -35 20 -66 21 -18 86 -16 101 2 20 24 4 62
-31 74 -46 16 -66 14 -90 -10z"/>
<path d="M1756 1477 c-42 -31 19 -90 73 -71 29 10 40 47 21 70 -15 18 -70 18
-94 1z"/>
<path d="M952 1438 c-7 -7 -12 -23 -12 -36 0 -33 25 -13 28 22 2 29 1 31 -16
14z"/>
<path d="M1672 1431 c-28 -17 22 -89 54 -77 15 6 15 8 -1 26 -10 11 -25 20
-34 20 -14 0 -14 2 -1 10 10 6 11 13 5 19 -6 6 -16 7 -23 2z"/>
<path d="M1070 1400 c25 -10 52 -19 60 -19 8 0 -7 9 -35 19 -64 25 -85 25 -25
0z"/>
<path d="M885 1396 c-3 -9 -7 -23 -10 -31 -2 -9 2 -15 10 -15 9 0 12 6 8 17
-4 11 -3 14 5 9 7 -4 12 -1 12 8 0 21 -19 30 -25 12z"/>
<path d="M2107 1342 c5 -58 3 -74 -11 -87 -18 -19 -20 -31 -6 -40 6 -3 10 2
10 12 0 11 5 24 11 30 15 15 17 129 2 144 -9 9 -11 -3 -6 -59z"/>
<path d="M1016 1391 c-9 -14 0 -69 14 -86 19 -23 7 -28 -16 -7 -10 10 -27 16
-36 14 -10 -2 -18 1 -18 6 0 5 -6 9 -12 9 -7 0 -22 4 -33 7 -16 6 -15 4 3 -6
12 -8 19 -17 16 -21 -4 -4 -1 -7 6 -7 20 0 90 -33 90 -42 0 -4 7 -5 15 -2 8 4
15 2 15 -3 0 -18 44 -31 68 -20 12 6 22 14 22 19 0 4 4 8 10 8 5 0 7 -6 4 -14
-4 -11 1 -11 31 -2 l36 11 -33 7 c-18 4 -53 5 -78 2 -25 -3 -49 -1 -55 3 -22
18 -38 60 -36 96 2 36 -2 46 -13 28z"/>
<path d="M1880 1380 c-8 -5 -36 -10 -62 -10 -50 0 -59 -9 -33 -30 14 -11 19
-7 16 13 0 4 16 7 38 7 22 0 44 6 51 15 14 17 11 19 -10 5z"/>
<path d="M1231 1356 c-9 -10 -9 -15 -1 -18 7 -2 12 -23 13 -46 2 -48 7 -52 24
-17 6 14 7 22 2 19 -6 -3 -7 12 -4 35 5 43 -10 56 -34 27z"/>
<path d="M1946 1355 c-3 -8 -3 -23 1 -32 6 -16 3 -15 -17 2 l-24 20 17 -25 c9
-13 17 -32 17 -41 0 -25 37 -31 43 -7 3 11 10 17 15 14 6 -3 13 0 15 6 4 10 6
9 6 -1 1 -8 -6 -22 -15 -32 -9 -10 -13 -23 -9 -29 8 -13 55 33 55 54 0 16 -60
47 -74 39 -5 -4 -6 5 -2 21 5 19 3 26 -8 26 -8 0 -16 -7 -20 -15z m33 -68
c-10 -18 -12 -19 -21 -4 -11 21 -2 38 17 31 12 -5 12 -10 4 -27z"/>
<path d="M745 1304 c-8 -20 -15 -45 -15 -56 0 -12 -4 -16 -11 -12 -17 10 -3
-84 21 -149 41 -109 160 -207 250 -207 l45 0 -44 20 c-24 11 -49 20 -57 20
-19 0 -144 124 -144 144 0 9 -5 16 -11 16 -5 0 -7 5 -4 10 4 6 11 8 16 5 17
-11 9 4 -13 25 -19 18 -23 31 -22 83 0 34 3 79 6 100 7 47 2 47 -17 1z"/>
<path d="M2206 1293 c3 -10 27 -40 55 -68 38 -38 49 -45 49 -30 0 15 3 16 12
7 7 -7 22 -12 33 -12 12 0 25 -3 29 -7 3 -4 14 -8 23 -9 9 -2 20 -10 25 -18 5
-9 13 -16 19 -16 5 0 49 -23 99 -50 104 -59 152 -67 182 -30 15 19 17 32 12
69 -8 57 -9 58 -33 37 -10 -9 -33 -21 -51 -26 -30 -9 -43 -5 -115 34 -45 23
-118 55 -163 69 -45 15 -101 36 -124 47 -51 24 -57 25 -52 3z m504 -184 c0
-28 -36 -40 -72 -24 -24 10 -23 24 1 18 10 -3 22 0 25 6 9 14 46 14 46 0z"/>
<path d="M1879 1242 c-26 -40 -80 -62 -115 -47 -11 5 -21 9 -24 9 -3 1 -16 8
-30 15 -33 19 -72 23 -67 8 2 -7 10 -12 18 -12 8 0 21 -7 29 -16 11 -11 37
-17 88 -18 79 -3 84 0 118 62 23 43 11 42 -17 -1z"/>
<path d="M1010 1235 c17 -21 70 -48 70 -36 0 10 -34 33 -64 44 -16 7 -17 5 -6
-8z"/>
<path d="M2030 1220 c-6 -11 -16 -17 -22 -14 -7 4 -8 3 -4 -4 4 -7 14 -12 21
-12 9 0 12 -6 9 -15 -4 -8 -3 -23 1 -32 6 -17 7 -17 21 1 16 22 19 40 5 32
-11 -7 -19 12 -16 42 2 27 -1 28 -15 2z"/>
<path d="M1208 1200 c-20 -11 -40 -24 -43 -30 -10 -16 18 -12 44 6 23 16 23
16 10 -7 -11 -22 -11 -23 5 -10 9 8 15 20 12 26 -2 7 1 18 7 24 15 15 8 13
-35 -9z"/>
<path d="M1879 1173 c-5 -13 -13 -21 -19 -18 -5 3 -10 1 -10 -5 0 -6 11 -8 26
-6 31 6 44 17 27 23 -25 9 -12 20 19 17 30 -4 66 -24 42 -24 -6 0 -11 -7 -11
-15 0 -17 15 -19 36 -6 19 12 -4 51 -32 52 -12 1 -32 3 -45 4 -17 2 -26 -5
-33 -22z"/>
<path d="M1885 1100 c-4 -16 -11 -30 -16 -30 -5 0 -9 -4 -9 -10 0 -17 25 -11
43 10 9 11 26 20 37 20 18 0 19 3 10 20 -6 11 -21 20 -35 20 -18 0 -25 -7 -30
-30z"/>
<path d="M1220 1101 c-7 -14 -8 -27 -2 -38 8 -13 11 -10 17 16 8 39 1 51 -15
22z"/>
<path d="M1404 1031 c-8 -6 -28 -52 -41 -93 -3 -10 -1 -18 5 -18 5 0 12 9 15
21 4 13 10 18 18 13 8 -4 10 -3 5 5 -10 15 11 41 34 41 23 0 51 -32 41 -48 -4
-7 -22 -14 -40 -14 -18 -1 -30 -6 -28 -12 5 -15 73 -12 91 4 12 9 13 17 4 34
-25 47 -82 84 -104 67z"/>
<path d="M1880 901 c-25 -3 -44 -10 -42 -16 2 -12 5 -12 55 -1 20 5 40 12 43
17 3 5 2 8 -3 7 -4 0 -28 -4 -53 -7z"/>
<path d="M1107 864 c3 -8 12 -13 20 -10 8 3 17 6 19 6 2 0 4 5 4 10 0 6 -11
10 -25 10 -18 0 -23 -4 -18 -16z"/>
<path d="M1595 839 c0 -21 0 -39 1 -39 1 0 9 12 19 26 9 15 12 23 6 20 -6 -4
-11 -1 -11 8 0 8 -3 17 -8 20 -4 2 -7 -13 -7 -35z"/>
<path d="M950 841 c-25 -10 -70 -31 -100 -46 -100 -52 -124 -62 -200 -80 -41
-11 -79 -23 -85 -28 -16 -14 105 3 160 23 43 16 101 27 168 33 27 2 20 15 -10
19 -25 3 -20 7 42 40 39 21 77 42 85 47 25 17 -8 13 -60 -8z"/>
<path d="M1831 849 c-13 -5 -36 -20 -52 -33 -26 -22 -27 -25 -10 -31 28 -8 74
12 67 30 -3 8 -1 15 4 15 6 0 10 -6 10 -12 1 -15 44 -74 93 -127 18 -20 37
-43 43 -52 5 -9 46 -47 92 -83 45 -37 82 -70 82 -74 0 -4 9 -18 20 -32 11 -14
18 -18 14 -9 -9 28 17 34 37 8 10 -13 20 -21 24 -18 6 7 -335 352 -372 376
-12 8 -23 23 -25 33 -2 14 -8 16 -27 9z"/>
<path d="M1156 815 c12 -30 75 -48 89 -25 4 6 3 10 -2 9 -4 -1 -25 5 -45 14
-46 21 -49 21 -42 2z"/>
<path d="M1420 822 c0 -13 23 -32 40 -32 8 0 24 8 35 16 19 15 19 15 -6 9 -16
-4 -30 -2 -33 4 -8 13 -36 15 -36 3z"/>
<path d="M1724 744 c-17 -14 -17 -15 -1 -10 14 5 16 1 11 -22 -5 -26 -5 -26
10 -8 30 37 14 67 -20 40z"/>
<path d="M1234 735 c-7 -16 74 -118 107 -135 38 -21 40 -44 10 -112 -38 -86
-70 -222 -72 -305 -1 -67 -11 -101 -33 -115 -8 -5 -7 -11 2 -20 29 -29 60 48
62 152 1 66 35 218 64 283 21 49 32 61 68 77 86 39 219 20 268 -38 80 -96 170
-287 196 -414 23 -116 23 -117 36 -95 20 36 -33 234 -102 382 -15 33 -51 89
-80 124 l-52 63 42 42 c23 22 46 48 51 58 17 32 -29 7 -49 -26 -26 -43 -71
-74 -102 -69 -13 2 -27 8 -30 13 -3 4 -33 10 -66 12 -44 2 -67 -2 -87 -15 -28
-18 -64 -22 -84 -9 -6 4 -23 24 -37 45 -14 21 -30 43 -36 50 -6 7 -19 24 -31
40 -23 30 -37 34 -45 12z"/>
<path d="M1450 735 c-11 -13 -5 -15 41 -15 52 1 53 1 29 15 -33 19 -55 19 -70
0z"/>
<path d="M1095 670 c-3 -5 -18 -10 -33 -11 -15 0 -21 -3 -14 -6 21 -8 13 -32
-19 -60 -17 -16 -35 -36 -41 -47 -10 -18 -9 -18 22 0 36 21 120 108 120 124 0
13 -27 13 -35 0z"/>
<path d="M910 501 c-26 -22 -30 -29 -14 -25 29 7 83 53 64 54 -9 0 -31 -13
-50 -29z"/>
</g>
</svg>
